<?xml version="1.0" encoding="UTF-8" standalone="no"?>
<!DOCTYPE svg PUBLIC "-//W3C//DTD SVG 20010904//EN"
              "http://www.w3.org/TR/2001/REC-SVG-20010904/DTD/svg10.dtd">

<svg xmlns="http://www.w3.org/2000/svg"
     width="6.01389in" height="5.16667in"
     viewBox="0 0 433 372">
  <path id="Selection #1"
        fill="black" stroke="black" stroke-width="1"
        d="M 118.83,47.36
           C 118.83,47.36 144.00,39.72 144.00,39.72
             144.00,39.72 198.00,12.92 198.00,12.92
             203.42,11.40 211.31,10.42 215.44,15.28
             217.03,17.14 218.08,21.50 219.00,24.00
             222.19,10.06 229.89,9.78 242.00,13.75
             242.00,13.75 293.00,39.55 293.00,39.55
             312.46,47.43 322.95,45.71 331.00,48.00
             331.00,48.00 330.00,51.00 330.00,51.00
             342.54,55.07 353.98,54.06 367.00,54.00
             375.46,53.96 378.88,51.46 385.99,50.57
             389.94,50.07 390.39,51.71 393.17,52.29
             395.68,52.82 402.14,51.22 403.26,55.28
             404.65,60.35 393.67,66.86 393.56,72.00
             393.49,75.49 400.01,86.87 402.14,90.00
             403.92,92.62 406.45,95.56 403.63,98.49
             401.92,100.27 397.44,101.18 395.00,102.00
             403.65,107.10 408.50,120.57 410.49,130.00
             411.36,133.56 412.88,138.59 410.49,141.72
             407.29,145.66 400.50,145.00 396.00,145.00
             397.14,147.70 398.84,151.22 399.47,154.00
             401.83,164.29 398.70,178.87 393.69,188.00
             390.82,193.23 387.46,198.36 382.00,201.00
             382.00,201.00 378.00,189.00 378.00,189.00
             376.57,206.68 373.14,222.09 362.97,237.00
             361.01,239.88 354.58,249.79 350.43,247.83
             349.16,247.23 346.40,240.95 345.00,239.00
             343.43,250.87 340.31,261.73 333.94,272.00
             333.94,272.00 320.93,289.00 320.93,289.00
             315.21,296.86 315.90,302.16 311.87,303.19
             308.68,304.01 298.44,298.48 295.00,297.00
             291.64,318.71 273.00,323.61 257.00,332.87
             257.00,332.87 240.42,344.14 240.42,344.14
             236.77,347.77 230.17,355.69 225.00,356.36
             222.81,357.03 220.99,356.20 219.00,356.36
             215.81,355.88 213.84,357.20 211.00,356.36
             204.26,354.42 199.18,345.54 193.91,341.54
             193.91,341.54 188.00,338.17 188.00,338.17
             188.00,338.17 177.00,331.31 177.00,331.31
             161.34,322.81 145.13,317.23 142.00,297.00
             138.26,298.61 128.85,303.74 125.13,302.94
             122.26,302.32 117.61,291.20 115.24,288.00
             109.35,280.02 105.13,276.69 100.27,267.00
             93.40,253.30 94.77,249.43 91.00,238.00
             91.00,238.00 87.00,250.00 87.00,250.00
             74.79,244.22 64.10,220.95 61.45,208.00
             60.05,201.14 60.40,195.56 58.00,189.00
             58.00,189.00 55.00,201.00 55.00,201.00
             49.19,198.23 46.32,193.52 43.31,188.00
             36.49,175.51 33.92,158.80 41.00,146.00
             36.76,145.44 29.40,145.05 26.50,141.61
             24.09,138.52 25.69,133.54 26.50,130.00
             28.54,119.36 33.51,108.06 42.00,101.00
             39.13,100.86 32.54,100.48 31.90,96.78
             31.49,94.41 34.92,90.08 36.17,88.00
             39.14,83.08 43.09,74.46 45.00,69.00
             41.39,66.97 33.27,59.97 35.23,55.15
             36.91,51.01 41.63,52.94 44.83,52.29
             47.67,51.71 47.79,50.19 52.01,50.72
             52.01,50.72 66.00,53.70 66.00,53.70
             72.17,54.58 94.96,54.30 101.00,53.05
             101.00,53.05 107.00,51.00 107.00,51.00
             107.00,51.00 106.00,48.00 106.00,48.00
             113.38,45.90 114.39,48.03 118.83,47.36 Z
           M 211.45,65.00
           C 201.69,80.11 187.90,88.06 173.00,97.00
             176.20,99.48 178.35,100.14 182.00,101.72
             189.42,104.92 195.07,107.25 203.00,103.32
             207.94,100.87 213.31,94.53 219.00,94.40
             225.55,94.25 231.59,102.08 236.09,104.00
             244.58,107.62 257.77,101.76 265.00,97.00
             242.47,84.16 226.65,74.19 219.00,48.00
             216.15,53.46 216.35,57.41 211.45,65.00 Z" />
</svg>
